<svg width="92" height="28" viewBox="0 0 92 28" fill="none" xmlns="http://www.w3.org/2000/svg">
<path d="M4.87851 12.2765C4.87851 7.70766 4.87851 5.42322 5.97501 3.78219C6.44969 3.07177 7.05966 2.46181 7.77008 1.98712C9.4111 0.890625 11.6955 0.890625 16.2644 0.890625C20.8333 0.890625 23.1178 0.890625 24.7588 1.98712C25.4692 2.46181 26.0792 3.07177 26.5539 3.78219C27.6504 5.42322 27.6504 7.70766 27.6504 12.2765C27.6504 16.8454 27.6504 19.1299 26.5539 20.7709C26.0792 21.4813 25.4692 22.0913 24.7588 22.566C23.1178 23.6625 20.8333 23.6625 16.2644 23.6625C11.6955 23.6625 9.4111 23.6625 7.77008 22.566C7.05966 22.0913 6.44969 21.4813 5.97501 20.7709C4.87851 19.1299 4.87851 16.8454 4.87851 12.2765Z" fill="#303030"/>
<path d="M0.541016 13.9031C0.541016 9.81368 0.541016 7.76896 1.81144 6.49854C3.08186 5.22812 5.12657 5.22812 9.216 5.22812H14.6379C18.7273 5.22812 20.772 5.22812 22.0424 6.49854C23.3129 7.76896 23.3129 9.81368 23.3129 13.9031V19.325C23.3129 23.4144 23.3129 25.4591 22.0424 26.7295C20.772 28 18.7273 28 14.6379 28H9.216C5.12657 28 3.08186 28 1.81144 26.7295C0.541016 25.4591 0.541016 23.4144 0.541016 19.325V13.9031Z" fill="#303030"/>
<path d="M39.7269 20.6816H35.2539V8.06348H39.7639C41.0331 8.06348 42.1257 8.31609 43.0417 8.82131C43.9576 9.32242 44.6621 10.0433 45.155 10.9839C45.652 11.9245 45.9005 13.05 45.9005 14.3602C45.9005 15.6746 45.652 16.8042 45.155 17.7489C44.6621 18.6936 43.9535 19.4186 43.0294 19.9238C42.1093 20.429 41.0085 20.6816 39.7269 20.6816ZM37.9217 18.3958H39.616C40.4047 18.3958 41.068 18.2562 41.6061 17.9769C42.1483 17.6935 42.5549 17.256 42.826 16.6645C43.1012 16.0689 43.2388 15.3008 43.2388 14.3602C43.2388 13.4278 43.1012 12.6659 42.826 12.0744C42.5549 11.4829 42.1504 11.0476 41.6123 10.7682C41.0742 10.4889 40.4108 10.3493 39.6222 10.3493H37.9217V18.3958Z" fill="#303030"/>
<path d="M51.4463 20.8665C50.4728 20.8665 49.6349 20.6693 48.9325 20.275C48.2342 19.8766 47.6961 19.3139 47.3182 18.5868C46.9404 17.8557 46.7514 16.9911 46.7514 15.993C46.7514 15.0195 46.9404 14.1651 47.3182 13.4299C47.6961 12.6947 48.228 12.1217 48.914 11.7109C49.6041 11.3002 50.4132 11.0948 51.3415 11.0948C51.9658 11.0948 52.5471 11.1954 53.0851 11.3967C53.6273 11.5939 54.0997 11.8916 54.5022 12.2901C54.9089 12.6885 55.2251 13.1896 55.451 13.7934C55.677 14.3931 55.7899 15.0955 55.7899 15.9005V16.6214H47.7988V14.9948H53.3193C53.3193 14.617 53.2371 14.2822 53.0728 13.9906C52.9085 13.6989 52.6805 13.471 52.3889 13.3067C52.1014 13.1383 51.7666 13.0541 51.3846 13.0541C50.9862 13.0541 50.633 13.1465 50.3249 13.3313C50.021 13.512 49.7827 13.7564 49.6102 14.0645C49.4377 14.3685 49.3494 14.7073 49.3453 15.0811V16.6276C49.3453 17.0958 49.4315 17.5004 49.6041 17.8413C49.7807 18.1822 50.0292 18.4451 50.3496 18.63C50.6699 18.8148 51.0499 18.9072 51.4894 18.9072C51.781 18.9072 52.048 18.8661 52.2903 18.784C52.5327 18.7018 52.7401 18.5786 52.9126 18.4143C53.0851 18.25 53.2166 18.0487 53.3069 17.8105L55.7345 17.9707C55.6112 18.554 55.3586 19.0633 54.9766 19.4987C54.5987 19.93 54.11 20.2668 53.5103 20.5091C52.9147 20.7474 52.2267 20.8665 51.4463 20.8665Z" fill="#303030"/>
<path d="M59.187 17.9584L59.1931 14.81H59.5751L62.6064 11.218H65.6193L61.5467 15.9745H60.9244L59.187 17.9584ZM56.8087 20.6816V8.06348H59.4334V20.6816H56.8087ZM62.7235 20.6816L59.9386 16.5598L61.6884 14.7053L65.7979 20.6816H62.7235Z" fill="#303030"/>
<path d="M70.0991 20.8665C69.1421 20.8665 68.3144 20.6632 67.6162 20.2565C66.922 19.8458 66.386 19.2748 66.0081 18.5437C65.6302 17.8085 65.4413 16.9562 65.4413 15.9868C65.4413 15.0092 65.6302 14.1549 66.0081 13.4237C66.386 12.6885 66.922 12.1176 67.6162 11.7109C68.3144 11.3002 69.1421 11.0948 70.0991 11.0948C71.0562 11.0948 71.8818 11.3002 72.576 11.7109C73.2742 12.1176 73.8123 12.6885 74.1902 13.4237C74.5681 14.1549 74.757 15.0092 74.757 15.9868C74.757 16.9562 74.5681 17.8085 74.1902 18.5437C73.8123 19.2748 73.2742 19.8458 72.576 20.2565C71.8818 20.6632 71.0562 20.8665 70.0991 20.8665ZM70.1115 18.8333C70.5469 18.8333 70.9104 18.7101 71.202 18.4636C71.4936 18.213 71.7134 17.8721 71.8612 17.4408C72.0132 17.0096 72.0892 16.5187 72.0892 15.9683C72.0892 15.4179 72.0132 14.9271 71.8612 14.4958C71.7134 14.0645 71.4936 13.7236 71.202 13.473C70.9104 13.2225 70.5469 13.0972 70.1115 13.0972C69.672 13.0972 69.3023 13.2225 69.0024 13.473C68.7067 13.7236 68.4829 14.0645 68.3309 14.4958C68.183 14.9271 68.1091 15.4179 68.1091 15.9683C68.1091 16.5187 68.183 17.0096 68.3309 17.4408C68.4829 17.8721 68.7067 18.213 69.0024 18.4636C69.3023 18.7101 69.672 18.8333 70.1115 18.8333Z" fill="#303030"/>
<path d="M80.0456 20.8665C79.0885 20.8665 78.2609 20.6632 77.5626 20.2565C76.8684 19.8458 76.3324 19.2748 75.9545 18.5437C75.5766 17.8085 75.3877 16.9562 75.3877 15.9868C75.3877 15.0092 75.5766 14.1549 75.9545 13.4237C76.3324 12.6885 76.8684 12.1176 77.5626 11.7109C78.2609 11.3002 79.0885 11.0948 80.0456 11.0948C81.0026 11.0948 81.8282 11.3002 82.5224 11.7109C83.2206 12.1176 83.7587 12.6885 84.1366 13.4237C84.5145 14.1549 84.7034 15.0092 84.7034 15.9868C84.7034 16.9562 84.5145 17.8085 84.1366 18.5437C83.7587 19.2748 83.2206 19.8458 82.5224 20.2565C81.8282 20.6632 81.0026 20.8665 80.0456 20.8665ZM80.0579 18.8333C80.4933 18.8333 80.8568 18.7101 81.1484 18.4636C81.44 18.213 81.6598 17.8721 81.8077 17.4408C81.9596 17.0096 82.0356 16.5187 82.0356 15.9683C82.0356 15.4179 81.9596 14.9271 81.8077 14.4958C81.6598 14.0645 81.44 13.7236 81.1484 13.473C80.8568 13.2225 80.4933 13.0972 80.0579 13.0972C79.6184 13.0972 79.2487 13.2225 78.9489 13.473C78.6531 13.7236 78.4293 14.0645 78.2773 14.4958C78.1294 14.9271 78.0555 15.4179 78.0555 15.9683C78.0555 16.5187 78.1294 17.0096 78.2773 17.4408C78.4293 17.8721 78.6531 18.213 78.9489 18.4636C79.2487 18.7101 79.6184 18.8333 80.0579 18.8333Z" fill="#303030"/>
<path d="M85.7161 20.6816V11.218H88.2607V12.8692H88.3593C88.5318 12.2819 88.8213 11.8382 89.228 11.5384C89.6346 11.2344 90.1029 11.0825 90.6327 11.0825C90.7642 11.0825 90.9059 11.0907 91.0579 11.1071C91.2098 11.1235 91.3433 11.1461 91.4583 11.1749V13.5038C91.3351 13.4669 91.1647 13.434 90.947 13.4052C90.7293 13.3765 90.5301 13.3621 90.3493 13.3621C89.9632 13.3621 89.6182 13.4463 89.3142 13.6147C89.0144 13.779 88.7762 14.009 88.5995 14.3048C88.427 14.6005 88.3408 14.9414 88.3408 15.3275V20.6816H85.7161Z" fill="#303030"/>
</svg>
